<?xml version="1.0" standalone="no"?>
<!DOCTYPE svg PUBLIC "-//W3C//DTD SVG 20010904//EN"
 "http://www.w3.org/TR/2001/REC-SVG-20010904/DTD/svg10.dtd">
<svg version="1.0" xmlns="http://www.w3.org/2000/svg"
 width="1024.000000pt" height="1024.000000pt" viewBox="0 0 1024.000000 1024.000000"
 preserveAspectRatio="xMidYMid meet">
<metadata>
Created by potrace 1.16, written by Peter Selinger 2001-2019
</metadata>
<g transform="translate(0.000000,1024.000000) scale(0.100000,-0.100000)"
fill="#000000" stroke="none">
<path d="M10 10235 c0 0 -3 -2303 -6 -5117 l-6 -5118 5121 0 5121 0 0 5121 0
5120 -2863 -6 c-1574 -3 -3054 -6 -3289 -5 -279 0 -428 -3 -428 -10 0 -6 32
-11 73 -11 39 -1 62 -4 50 -6 -15 -3 -23 -12 -23 -24 0 -18 6 -20 45 -18 49 3
68 -5 36 -16 -12 -3 -19 -11 -16 -16 4 -5 -1 -9 -9 -9 -9 0 -16 -9 -16 -20 0
-13 7 -20 20 -20 11 0 20 5 20 10 0 14 40 57 41 44 1 -5 0 -19 -1 -31 -1 -17
4 -23 19 -23 18 0 21 6 21 40 0 33 3 40 20 40 13 0 20 -7 20 -20 0 -13 7 -20
20 -20 13 0 20 7 20 19 0 21 54 37 85 25 9 -4 20 -2 24 4 3 6 20 13 36 16 l30
6 -28 -11 c-19 -7 -26 -16 -23 -26 3 -8 6 -23 6 -34 0 -10 5 -19 10 -19 6 0
10 15 10 33 0 31 1 32 45 34 42 2 45 0 45 -22 0 -22 4 -25 40 -25 33 0 40 3
40 20 0 13 7 20 20 20 13 0 20 7 20 20 0 14 7 20 21 20 16 0 20 -5 17 -23 -4
-31 33 -70 58 -60 10 4 24 13 29 21 9 11 14 9 30 -12 20 -27 45 -35 45 -15 0
11 14 10 95 -5 26 -5 26 -4 -5 6 l-35 13 60 3 c92 5 125 -4 125 -33 0 -14 -6
-25 -12 -25 -14 -1 20 -30 34 -30 4 0 8 9 8 20 0 11 7 20 15 20 10 0 15 -10
15 -30 0 -31 9 -37 27 -19 8 8 8 20 1 40 -5 16 -7 36 -4 45 5 13 2 15 -13 11
-13 -3 -18 -1 -15 8 6 14 36 25 72 25 17 0 22 -6 22 -25 0 -27 -9 -32 -28 -13
-8 8 -12 9 -12 1 0 -6 6 -14 13 -16 9 -4 9 -8 -2 -15 -11 -8 -10 -14 9 -33
l22 -24 -12 23 c-13 26 -4 45 10 22 5 -8 12 -11 17 -7 4 5 1 12 -7 17 -11 7
-11 12 -2 23 7 7 9 16 6 20 -8 8 5 47 16 47 5 0 13 -12 19 -27 9 -26 10 -25 5
10 -6 33 -4 37 15 37 14 0 21 -6 21 -20 0 -35 38 -25 49 13 5 17 10 25 10 16
1 -12 9 -14 32 -11 21 3 30 1 25 -6 -4 -7 11 -9 46 -5 29 3 50 2 47 -1 -3 -4
-23 -7 -43 -8 -20 -1 -39 -5 -41 -9 -3 -3 3 -6 13 -5 12 1 18 -8 20 -26 3 -24
8 -28 33 -28 37 0 38 -17 2 -23 -16 -2 -7 -3 20 -2 47 2 65 -12 27 -22 -11 -3
-17 -9 -14 -14 3 -5 -1 -9 -9 -9 -8 0 -18 -10 -22 -22 -8 -27 -13 -110 -5 -99
3 4 37 4 75 0 39 -4 74 -4 78 0 14 14 55 0 60 -21 3 -11 15 -22 26 -25 24 -6
28 -23 6 -23 -8 0 -15 5 -15 10 0 6 -7 10 -15 10 -8 0 -15 -4 -15 -9 0 -10 35
-22 73 -24 24 -2 46 -20 47 -38 0 -3 -10 -10 -22 -16 -20 -9 -19 -10 10 -10
18 0 28 3 22 7 -6 4 -1 11 12 17 34 17 75 21 75 9 0 -6 4 -20 7 -31 5 -14 3
-14 -5 3 -7 13 -20 21 -28 20 -13 -3 -16 -17 -16 -66 0 -41 -4 -62 -12 -62 -6
0 -13 6 -16 13 -2 6 -8 8 -13 4 -5 -4 -3 -12 4 -16 7 -4 11 -14 9 -22 -2 -8
-2 -11 0 -6 7 11 23 9 23 -3 0 -26 38 -51 71 -48 l34 4 -42 12 c-24 7 -43 19
-43 27 0 18 17 28 25 15 3 -5 40 -10 81 -10 84 0 92 -9 47 -54 -21 -21 -24
-29 -14 -35 11 -7 11 -10 0 -14 -8 -3 -4 -4 8 -4 18 1 20 4 10 15 -9 11 -6 18
13 33 32 24 130 27 130 4 0 -8 -9 -15 -20 -15 -11 0 -20 -4 -20 -10 0 -5 14
-10 30 -10 17 0 30 -4 30 -10 0 -5 -13 -10 -30 -10 -16 0 -30 -4 -30 -10 0 -6
23 -7 60 -3 l60 6 0 -57 c0 -31 5 -56 10 -56 6 0 10 -7 10 -15 0 -8 7 -15 15
-15 8 0 15 -4 15 -9 0 -5 -7 -11 -15 -15 -8 -3 -15 0 -15 7 0 16 -38 40 -50
32 -6 -4 -10 5 -10 19 0 36 -36 36 -42 1 -3 -14 -2 -25 1 -25 3 0 12 -12 18
-27 10 -21 10 -28 0 -35 -20 -13 -24 -9 -22 15 3 21 0 22 -56 19 l-59 -4 0
-35 c0 -26 -5 -36 -20 -40 -11 -3 -20 -14 -20 -24 0 -12 -7 -19 -20 -19 -15 0
-20 7 -20 26 0 24 -3 26 -31 20 -17 -3 -35 -6 -40 -6 -5 0 -9 -9 -9 -20 0 -14
-7 -20 -21 -20 -15 0 -20 6 -19 23 3 28 -10 67 -21 67 -5 0 -9 -7 -9 -16 0 -9
-9 -18 -20 -21 -11 -3 -20 -12 -20 -19 0 -20 13 -17 30 6 17 23 30 26 30 6 0
-7 -9 -16 -20 -19 -11 -3 -20 -12 -20 -21 0 -23 -17 -20 -23 5 -3 11 -15 23
-26 26 -11 3 -18 9 -15 14 3 5 -2 9 -11 9 -9 0 -14 -4 -11 -9 4 -5 -4 -7 -16
-3 -22 5 -22 6 5 15 26 8 38 27 17 27 -5 0 -10 -4 -10 -10 0 -5 -7 -10 -15
-10 -8 0 -15 5 -15 10 0 6 5 10 10 10 6 0 10 4 10 9 0 13 -39 22 -100 23 -30
0 -45 2 -32 5 34 7 26 21 -18 33 -43 12 -60 7 -60 -16 0 -8 -9 -14 -20 -14
-19 0 -22 4 -24 40 -1 8 -10 15 -21 15 -11 0 -26 4 -32 8 -9 6 -11 3 -7 -7 4
-10 1 -16 -9 -16 -10 0 -13 -8 -9 -25 3 -20 0 -25 -17 -25 -14 0 -21 6 -21 20
0 13 -7 20 -20 20 -13 0 -20 -7 -20 -20 0 -13 -7 -20 -20 -20 -13 0 -20 7 -20
19 0 13 -10 20 -31 25 -44 8 -51 8 -44 -5 4 -6 13 -8 21 -5 9 3 14 -2 14 -14
0 -18 -5 -19 -40 -14 -27 4 -40 3 -40 -5 0 -6 7 -11 15 -11 23 0 18 -17 -7
-24 -47 -12 -48 -11 -48 94 0 93 -1 100 -20 100 -17 0 -20 -7 -20 -40 0 -33
-3 -40 -20 -40 -11 0 -20 -6 -20 -12 -1 -7 -11 0 -24 15 -21 26 -24 27 -36 12
-13 -16 -15 -16 -21 2 -9 25 -2 33 29 33 21 0 24 2 12 10 -8 5 -24 7 -35 5
-11 -3 -14 -2 -7 1 10 5 10 9 1 20 -16 19 0 18 23 -3 23 -21 36 -10 14 12 -17
18 -22 40 -6 30 6 -3 10 3 10 14 0 14 -6 21 -20 21 -11 0 -20 -7 -20 -15 0
-24 -46 -48 -77 -40 -21 5 -24 8 -12 16 7 5 28 9 44 10 23 2 20 4 -15 9 -39 6
-40 7 -12 8 17 1 32 7 32 13 0 27 -129 -18 -130 -45 0 -5 8 -2 18 7 22 20 32
13 32 -20 0 -20 -5 -23 -40 -23 -33 0 -40 3 -40 20 0 13 -7 20 -20 20 -17 0
-20 -7 -20 -45 0 -51 -11 -58 -29 -19 -10 23 -9 30 9 49 29 31 27 59 -4 51
-32 -8 -56 2 -56 24 0 26 -45 34 -69 13 -11 -9 -18 -20 -15 -25 3 -4 -4 -8
-15 -8 -17 0 -21 -6 -21 -31 0 -30 -19 -59 -39 -59 -5 0 -13 -9 -16 -20 -3
-11 -13 -20 -21 -20 -8 0 -14 -4 -14 -10 0 -5 7 -10 15 -10 8 0 15 -4 15 -10
0 -5 7 -10 15 -10 8 0 15 5 15 10 0 6 -7 10 -16 10 -11 0 -14 5 -10 16 3 9 6
18 6 20 0 2 7 4 15 4 8 0 15 5 15 10 0 6 7 10 15 10 18 0 20 -17 3 -22 -8 -3
-8 -9 -1 -22 5 -10 8 -29 5 -42 -4 -20 -10 -24 -43 -24 -33 0 -39 -3 -39 -21
0 -19 -5 -20 -99 -18 -54 1 -104 -2 -111 -6 -6 -4 -14 -4 -18 0 -3 3 0 10 8
15 8 5 11 12 7 17 -5 4 -12 2 -16 -5 -4 -7 -15 -10 -24 -6 -17 6 -47 -11 -47
-27 0 -5 15 -7 33 -5 17 2 35 -1 40 -8 5 -8 10 -7 16 4 6 8 13 11 17 8 3 -4
-1 -15 -11 -24 -14 -14 -18 -15 -25 -4 -7 11 -11 11 -24 1 -9 -8 -16 -19 -16
-25 0 -7 3 -6 9 2 5 8 9 -10 10 -45 1 -32 4 -104 7 -160 5 -101 6 -103 30
-103 13 0 24 -5 24 -11 0 -7 -18 -10 -47 -7 -47 3 -48 2 -45 -24 3 -26 2 -27
-42 -25 -36 2 -46 6 -46 20 0 12 8 17 25 17 30 0 29 -5 10 66 -16 61 -21 71
-32 60 -4 -3 -1 -12 5 -18 14 -14 16 -38 3 -38 -5 0 -12 14 -16 30 -4 17 -13
30 -21 30 -8 0 -14 5 -14 10 0 6 5 10 10 10 6 0 9 10 9 23 -1 16 -2 18 -6 5
-2 -10 -8 -18 -13 -18 -13 0 -30 35 -30 61 0 17 -5 20 -25 17 -21 -5 -23 -3
-13 10 11 13 8 14 -22 8 l-35 -6 29 12 c23 11 29 21 32 56 2 24 0 42 -6 42 -6
0 -10 -13 -10 -30 0 -16 -4 -30 -10 -30 -5 0 -10 14 -10 30 0 17 -4 30 -10 30
-5 0 -10 -10 -10 -22 -1 -22 -1 -23 -15 -4 -8 11 -15 30 -15 44 0 17 -5 22
-17 20 -10 -1 -24 1 -31 5 -15 10 -46 -18 -37 -33 4 -6 -10 -10 -34 -10 -34 0
-41 -3 -41 -20 0 -17 -7 -20 -40 -20 -33 0 -40 -3 -40 -20 0 -12 -7 -20 -17
-20 -15 0 -15 -1 0 -18 10 -11 17 -36 17 -60 0 -35 -3 -42 -20 -42 -17 0 -20
-7 -20 -40 l0 -40 -40 0 c-39 0 -40 -1 -40 -35 0 -21 5 -35 12 -35 9 0 9 -3 0
-12 -8 -8 -19 -3 -42 22 -16 17 -30 27 -30 22 0 -6 7 -18 16 -27 9 -9 13 -19
10 -23 -4 -3 -11 0 -15 7 -7 11 -10 11 -14 0 -3 -8 -5 -3 -4 10 1 13 -3 26 -9
28 -7 2 -11 -4 -10 -13 0 -11 -8 -20 -21 -23 -17 -5 -20 -10 -13 -21 16 -25
11 -40 -13 -40 -13 0 -27 -3 -31 -7 -4 -5 -25 -8 -46 -9 -31 0 -37 2 -28 13 8
10 6 13 -6 13 -9 0 -16 -4 -16 -10 0 -5 -9 -10 -19 -10 -11 0 -23 -5 -26 -11
-6 -8 -110 -7 -110 1 0 7 -85 9 -128 2 -41 -6 -59 -5 -73 5 -9 7 -14 16 -10
20 4 4 11 1 16 -7 5 -8 12 -11 16 -8 3 4 -1 14 -10 23 -14 15 -17 15 -32 1 -8
-9 -13 -20 -10 -25 3 -5 -1 -22 -10 -37 l-15 -29 6 35 c5 25 4 32 -4 25 -6 -6
-28 -9 -50 -7 -29 3 -41 9 -44 24 -3 11 -15 22 -26 25 -24 6 -28 23 -6 23 8 0
15 -4 15 -10 0 -5 7 -10 15 -10 8 0 15 3 15 8 0 16 -48 27 -107 24 l-63 -4 0
-39 c0 -32 4 -39 19 -39 12 0 20 -9 24 -25 3 -20 1 -25 -12 -23 -9 2 -20 13
-26 26 -9 21 -45 32 -45 13 0 -5 -3 -16 -6 -25 -5 -13 1 -16 30 -16 20 0 36
-4 36 -10 0 -5 -7 -10 -15 -10 -8 0 -15 -4 -15 -10 0 -5 4 -10 9 -10 6 0 13 5
16 10 3 6 13 10 22 10 13 0 13 -2 2 -16 -12 -15 -11 -16 6 -11 11 4 27 2 35
-4 12 -8 11 -9 -5 -5 -11 3 -26 2 -33 -3 -16 -9 -1 -51 32 -90 18 -20 18 -23
4 -18 -10 3 -20 2 -23 -4 -4 -5 -1 -8 7 -7 8 2 13 -7 13 -27 0 -24 6 -33 30
-42 l30 -13 -31 6 c-29 5 -30 4 -26 -26 4 -25 1 -30 -16 -30 -11 0 -22 -8 -25
-20 -4 -17 -14 -20 -61 -20 l-56 0 0 31 c0 21 -8 40 -24 54 -17 16 -22 29 -19
49 5 24 3 26 -32 26 -28 0 -38 -5 -42 -20 -3 -11 -14 -20 -24 -20 -12 0 -19 7
-19 20 0 13 -7 20 -20 20 -13 0 -20 -7 -20 -20 0 -17 -7 -20 -40 -20 -33 0
-40 -3 -40 -20 0 -13 -7 -20 -20 -20 -17 0 -20 7 -20 40 0 33 -4 40 -19 40
-12 0 -20 9 -23 25 -5 26 16 37 25 13 2 -7 8 -9 13 -5 5 4 2 12 -6 18 -13 8
-13 10 0 18 8 6 11 14 6 18 -5 4 -11 2 -13 -4 -3 -7 -11 -13 -19 -13 -8 0 -11
6 -8 15 4 9 -4 25 -18 38 -22 21 -24 28 -18 75 5 40 3 52 -7 52 -7 0 -13 5
-13 10 0 6 6 10 13 10 10 0 12 12 7 50 -5 36 -3 50 6 50 16 0 37 -27 32 -42
-5 -14 35 -58 52 -58 14 0 13 -13 -2 -28 -9 -9 -9 -12 0 -12 7 0 12 5 12 10 0
6 5 10 11 10 6 0 17 7 25 15 9 8 26 15 40 15 19 0 24 5 24 26 0 21 4 25 19 21
14 -3 18 2 19 24 0 16 -4 29 -9 29 -5 0 -8 3 -7 8 5 13 -36 52 -55 52 -15 0
-16 -3 -7 -20 6 -12 7 -20 1 -20 -5 0 -14 12 -20 28 -10 25 -10 25 -5 -8 5
-28 4 -33 -7 -25 -8 6 -34 8 -59 4 -25 -3 -39 -7 -32 -7 6 -1 12 -6 12 -12 0
-13 -27 -13 -32 0 -2 6 -28 14 -58 19 -44 7 -57 6 -63 -5 -15 -26 -26 -4 -16
31 11 37 4 75 -12 75 -5 0 -12 -13 -15 -30 -4 -16 -10 -30 -14 -30 -14 0 -18
50 -5 58 10 5 10 23 4 72 -12 86 -11 84 -38 59 -19 -18 -25 -19 -32 -8 -5 8
-8 19 -8 24 0 6 3 4 6 -2 6 -17 23 -16 23 1 0 8 6 16 13 19 17 6 87 -40 87
-58 0 -8 5 -15 10 -15 6 0 10 7 10 15 0 8 -4 15 -9 15 -5 0 -13 9 -16 20 -6
20 14 50 34 50 15 0 14 17 -1 23 -7 3 -1 6 15 6 25 1 27 -2 27 -38 0 -35 -2
-38 -25 -36 -14 2 -25 -1 -25 -7 0 -7 17 -8 45 -4 41 7 45 5 45 -13 0 -14 6
-21 20 -21 13 0 20 7 20 20 0 11 3 20 8 21 66 10 102 -3 47 -17 l-26 -6 27
-14 c34 -18 62 -10 66 19 2 15 12 24 33 28 l30 7 -35 2 c-32 3 -33 3 -7 7 20
3 27 9 23 19 -4 9 2 14 16 14 12 0 18 3 14 8 -8 7 -13 8 -73 11 -28 1 -33 5
-33 26 0 16 -6 25 -15 25 -19 0 -20 16 -1 23 8 3 20 -1 26 -9 7 -8 17 -14 23
-14 6 0 2 10 -10 21 -19 20 -24 20 -52 8 -33 -15 -41 -29 -16 -29 9 0 15 -9
15 -25 0 -14 5 -25 10 -25 6 0 10 -11 10 -25 0 -19 -5 -25 -21 -25 -17 0 -19
3 -10 14 9 11 8 18 -4 30 -20 19 -35 13 -35 -15 0 -10 -4 -19 -10 -19 -5 0
-10 9 -10 20 0 11 5 20 10 20 14 0 13 37 -1 46 -8 4 -7 9 2 15 12 7 12 9 1 9
-11 0 -12 11 -7 48 6 45 5 49 -20 60 -15 7 -31 10 -36 7 -5 -4 -9 -1 -9 5 0 6
6 13 14 16 8 3 17 17 21 31 3 14 16 34 28 43 18 15 19 20 8 34 -7 9 -18 16
-23 16 -6 0 -4 -7 3 -16 11 -14 10 -19 -9 -34 -12 -10 -22 -28 -22 -39 0 -12
-4 -21 -10 -21 -5 0 -10 10 -10 23 0 12 -3 31 -6 42 -3 14 3 30 21 47 14 15
22 29 16 32 -5 4 -12 2 -16 -4 -3 -5 -13 -10 -21 -10 -10 0 -13 7 -8 25 5 21
3 25 -15 25 -16 0 -21 -6 -21 -25 0 -14 -4 -25 -9 -25 -13 0 -34 58 -27 75 4
13 1 15 -14 10 -23 -7 -26 5 -7 24 10 11 7 12 -13 6 -24 -7 -24 -7 -5 8 12 10
24 12 31 6 6 -5 14 -6 17 -2 12 11 8 23 -8 23 -8 0 -12 6 -9 14 4 11 0 13 -14
9 -11 -3 -22 -13 -25 -24 -7 -25 -37 -25 -37 1 0 14 -7 20 -21 20 -14 0 -19 5
-17 18 2 12 14 18 41 20 29 3 37 7 37 23 0 11 4 18 9 15 5 -3 12 1 15 10 9 24
7 31 -4 14 -5 -8 -10 -10 -10 -4 0 18 12 24 31 13 15 -7 19 -6 19 6 0 8 5 15
10 15 6 0 10 -14 10 -31 0 -30 1 -31 35 -25 30 6 41 3 67 -19 17 -14 33 -23
36 -20 4 3 0 10 -8 15 -12 8 -10 10 8 10 13 0 22 6 22 16 0 11 -6 14 -22 9
-17 -4 -19 -3 -8 3 27 17 88 22 93 8 4 -9 -2 -11 -21 -8 -20 4 -24 2 -19 -12
4 -9 2 -16 -4 -16 -6 0 -3 -7 5 -16 9 -8 21 -12 26 -9 6 4 17 1 25 -5 9 -8 25
-9 42 -5 16 4 22 10 15 12 -6 3 -12 11 -12 19 0 8 -9 14 -20 14 -11 0 -20 4
-20 9 0 5 9 7 21 4 17 -5 20 -2 17 18 -2 15 4 31 16 42 11 9 16 20 12 24 -4 4
-11 1 -16 -7 -8 -13 -12 -12 -27 4 -14 14 -14 17 -3 14 24 -8 73 21 66 38 -3
9 -6 18 -6 20 0 2 -9 4 -20 4 -11 0 -20 5 -20 10 0 6 10 10 23 10 16 0 28 -10
40 -32 l16 -33 0 43 c1 23 -3 42 -9 42 -5 0 -10 11 -10 25 0 20 5 25 28 26 24
1 23 2 -8 9 -26 7 -1248 15 -2110 15z m5999 -395 c19 0 32 -8 41 -25 7 -14 19
-25 27 -25 7 0 13 -4 13 -10 0 -5 -7 -10 -15 -10 -8 0 -15 -4 -15 -10 0 -5 5
-10 10 -10 6 0 10 -16 10 -35 l0 -35 -49 0 c-27 0 -63 3 -81 6 -31 7 -32 9
-27 44 4 34 3 36 -19 32 -14 -2 -24 0 -24 7 0 8 17 11 50 9 32 -2 50 -8 50
-15 0 -7 10 -13 23 -13 l22 1 -21 17 c-11 10 -23 24 -27 32 -4 12 -6 11 -6 -2
-1 -19 -14 -21 -44 -9 -17 6 -17 8 5 33 13 15 29 25 36 22 8 -2 26 -4 41 -4z
m-1089 -650 c0 -5 9 -10 20 -10 16 0 20 -7 20 -31 0 -24 -4 -30 -16 -25 -8 3
-12 2 -9 -4 3 -6 1 -10 -6 -10 -11 0 -11 -2 0 -12 10 -11 14 -10 22 5 6 9 17
17 25 17 8 0 12 -4 9 -10 -3 -5 0 -7 8 -4 8 3 23 -3 32 -13 10 -10 23 -18 28
-18 14 0 20 -29 22 -102 1 -40 -2 -60 -8 -56 -6 4 -8 -2 -5 -15 4 -12 2 -20
-2 -17 -10 6 -27 -37 -74 -185 -67 -209 -104 -303 -122 -314 -57 -33 -108 -21
-140 33 -9 16 -22 27 -28 25 -7 -3 -12 15 -13 46 -3 44 0 50 17 50 15 0 20 7
20 24 0 14 -4 28 -10 31 -19 12 -10 53 19 84 27 28 40 81 20 81 -5 0 -9 9 -9
20 0 11 5 20 11 20 7 0 9 10 5 25 -4 14 -2 25 3 25 9 0 21 69 21 123 0 21 4
27 21 27 16 0 20 5 16 20 -4 14 0 20 11 20 15 0 15 2 2 10 -10 6 -11 10 -2 10
8 0 12 17 12 51 0 46 2 51 20 46 16 -4 20 0 20 19 0 17 6 24 20 24 11 0 20 -4
20 -10z m-652 -45 c4 -5 13 -10 21 -10 19 0 19 -3 27 -356 7 -304 7 -306 -14
-327 -32 -32 -82 -29 -120 6 -33 31 -37 42 -49 147 l-8 70 -3 -80 c-2 -44 -7
-84 -12 -89 -7 -7 -10 -4 -10 8 0 9 -4 14 -10 11 -5 -3 -10 3 -10 14 0 14 -6
21 -20 21 -18 0 -20 7 -20 60 0 33 -4 60 -10 60 -5 0 -10 9 -10 20 0 13 7 20
20 20 13 0 20 7 20 20 0 11 3 20 8 20 4 0 6 62 4 137 -4 161 3 223 24 223 8 0
14 -9 14 -21 0 -11 -4 -18 -9 -14 -5 3 -12 1 -16 -5 -3 -5 -2 -10 4 -10 6 0
12 -60 14 -147 3 -82 9 -170 15 -198 7 -40 10 -7 13 163 2 116 1 212 -3 212
-5 0 -8 7 -8 16 0 13 3 14 13 5 11 -8 20 -6 38 12 25 23 84 31 97 12z m-820
-249 c42 -2 52 0 52 13 0 19 43 -66 45 -90 3 -24 68 -149 78 -149 4 0 6 -4 2
-9 -3 -5 -1 -12 5 -16 18 -11 11 13 -15 51 -29 42 -28 58 3 62 17 3 22 -2 22
-18 0 -12 4 -19 9 -16 11 7 21 -55 14 -83 -3 -11 -10 -18 -15 -15 -5 3 0 -12
11 -35 12 -23 23 -41 24 -41 2 0 2 13 -1 30 -2 16 -8 27 -13 24 -5 -3 -9 -1
-9 5 0 14 18 23 24 12 3 -5 7 -27 8 -50 1 -24 5 -38 11 -34 6 3 7 1 3 -6 -12
-19 3 -49 30 -55 14 -4 23 -10 20 -15 -3 -4 2 -20 10 -36 12 -23 12 -26 0 -16
-8 7 -17 23 -20 36 -4 14 -11 25 -16 25 -5 0 3 -25 17 -56 22 -48 23 -59 13
-85 -16 -39 -37 -49 -100 -49 -43 0 -53 3 -57 20 -4 16 -9 18 -26 9 -11 -6
-37 -9 -58 -6 -52 7 -53 -17 -1 -34 20 -7 32 -14 26 -16 -16 -5 -104 36 -104
49 0 19 -42 58 -62 58 -11 0 -18 7 -18 20 0 13 -7 20 -20 20 -14 0 -20 7 -20
23 0 13 -9 32 -20 42 -26 24 -25 39 3 52 22 11 21 11 -8 19 -34 9 -57 28 -47
39 4 4 -6 4 -23 -1 -16 -4 -56 -9 -87 -9 l-58 -1 0 37 c0 29 5 39 20 44 17 5
20 15 20 66 0 49 3 59 14 52 8 -5 35 -7 60 -5 37 3 46 8 46 23 0 12 7 19 20
19 15 0 20 7 20 28 0 32 34 80 44 63 12 -19 47 -13 53 10 4 13 8 16 13 10 3
-6 30 -13 58 -15z m2752 -21 c0 -8 -9 -15 -20 -15 -11 0 -20 -6 -20 -14 0 -9
8 -12 26 -8 17 3 33 -3 50 -19 17 -16 24 -19 22 -9 -2 8 -7 19 -13 23 -6 5 -4
7 5 5 8 -3 15 -18 16 -34 1 -16 5 -38 9 -50 9 -30 -38 -84 -74 -84 -37 0 -93
59 -94 97 0 15 -2 22 -4 16 -3 -7 -11 -13 -18 -13 -15 0 -29 30 -19 39 4 3 9
0 11 -7 5 -13 23 -7 23 9 0 5 -17 10 -37 11 -37 1 -37 1 -5 5 32 4 41 16 22
28 -6 4 -8 11 -4 16 3 5 8 7 12 5 4 -2 25 0 47 4 60 12 65 11 65 -5z m-437
-122 c-7 -3 2 -17 23 -35 40 -35 51 -67 33 -100 -11 -20 -107 -136 -149 -179
-8 -8 -49 -53 -90 -99 -41 -46 -101 -113 -134 -150 -90 -101 -113 -120 -145
-120 -15 0 -44 12 -64 28 -36 26 -37 29 -34 87 1 44 7 65 21 78 11 9 21 15 24
12 3 -2 -6 -13 -19 -24 -13 -11 -19 -20 -13 -21 18 0 89 83 76 88 -15 5 -16
49 0 58 6 4 8 3 5 -3 -4 -6 0 -17 9 -24 13 -11 23 -4 69 47 29 32 51 61 48 64
-2 3 -9 -3 -14 -12 -6 -10 -18 -22 -27 -27 -26 -14 -28 47 -2 69 13 11 20 30
20 54 0 29 4 36 20 36 13 0 20 7 20 20 0 13 7 20 20 20 11 0 20 5 20 10 0 6 9
10 20 10 11 0 20 -4 20 -10 0 -5 5 -10 11 -10 5 0 7 5 4 10 -3 6 3 10 14 10
15 0 19 -5 14 -17 -5 -15 -3 -15 14 2 11 11 16 21 12 23 -4 2 -3 14 3 27 6 14
14 22 18 20 5 -3 10 2 14 10 3 8 14 15 26 15 11 0 25 8 31 18 7 11 25 17 52
18 23 1 37 0 30 -3z m1511 -136 c7 -12 16 -59 19 -105 3 -46 8 -86 11 -89 3
-3 39 -9 80 -13 85 -8 106 -20 106 -59 0 -50 -19 -62 -107 -68 -80 -6 -81 -6
-87 -36 -3 -16 -6 -56 -6 -87 0 -68 -6 -87 -31 -100 -14 -8 -28 -5 -56 10 -21
11 -33 20 -27 20 13 0 6 169 -7 186 -5 6 -51 14 -101 17 -67 4 -96 10 -104 21
-6 9 -17 16 -25 17 -10 0 -11 2 -1 6 6 2 12 13 12 24 0 32 45 52 131 57 43 3
79 5 80 6 0 0 7 44 15 96 7 52 15 100 16 105 1 6 16 11 34 12 26 2 37 -2 48
-20z m-2894 -6 c0 -5 -5 -11 -12 -13 -17 -6 -2 -38 18 -38 9 0 18 9 21 20 3
11 12 20 19 20 8 0 14 -9 14 -20 0 -11 6 -20 14 -20 8 0 18 -9 21 -20 3 -11
15 -20 26 -20 12 0 19 -7 19 -20 0 -13 -7 -20 -20 -20 -13 0 -20 7 -20 20 0
13 -7 20 -20 20 -18 0 -20 -7 -20 -55 0 -45 -3 -55 -17 -56 -15 0 -15 -2 2 -9
17 -7 17 -9 3 -9 -10 -1 -18 -7 -18 -15 0 -8 -9 -18 -20 -21 -33 -10 -24 -35
13 -36 17 0 26 -3 18 -6 -11 -5 -11 -7 0 -14 9 -5 -12 -9 -53 -9 -38 0 -68 4
-68 9 0 6 -12 12 -27 14 -16 2 -12 2 7 0 19 -2 53 -5 75 -7 34 -3 35 -2 3 1
-38 4 -38 5 -38 49 0 32 -4 44 -15 44 -8 0 -15 5 -15 10 0 6 7 10 15 10 8 0
15 5 15 10 0 14 27 12 34 -2 2 -7 4 -2 3 12 -2 21 2 25 23 22 l25 -2 -26 14
c-21 12 -27 25 -32 66 -3 28 -4 57 0 65 6 16 33 21 33 6z m1413 -68 c-7 -2
-13 -9 -13 -14 0 -5 6 -9 13 -9 8 0 11 -17 9 -60 -2 -33 -8 -60 -13 -60 -5 0
-9 -5 -9 -11 0 -6 -6 -17 -14 -25 -8 -8 -19 -14 -25 -14 -6 0 -11 -7 -11 -15
0 -8 7 -15 15 -15 21 0 21 -98 1 -114 -8 -6 -18 -27 -21 -48 -6 -30 -4 -37 11
-40 11 -2 -9 -14 -48 -29 -97 -39 -222 -116 -291 -181 l-60 -57 -56 47 c-70
58 -80 67 -61 57 23 -13 72 -48 94 -67 24 -22 31 -17 17 10 -16 30 -13 42 9
42 13 0 20 7 20 18 0 10 9 24 20 32 16 12 20 26 20 72 0 32 4 58 8 58 4 0 15
12 24 28 19 31 36 51 157 178 47 50 97 107 111 127 14 20 31 37 39 37 8 0 12
2 9 5 -7 8 34 55 47 54 6 0 4 -3 -2 -6z m796 -19 c42 -35 43 -84 2 -125 -17
-16 -40 -29 -54 -29 -33 0 -77 52 -77 90 0 37 44 90 75 90 13 0 37 -12 54 -26z
m-3705 -102 c-14 -9 0 -52 16 -52 6 0 8 6 4 13 -6 9 -5 9 8 0 8 -7 17 -10 20
-8 3 3 5 -5 4 -17 0 -13 4 -22 11 -21 6 1 14 -4 17 -13 3 -8 2 -12 -4 -9 -6 3
-10 2 -10 -3 0 -5 9 -12 20 -15 11 -3 18 -1 14 4 -3 5 2 9 10 9 14 0 20 -11
18 -32 -1 -3 5 -12 14 -19 8 -7 14 -8 13 -3 -5 27 3 44 21 44 11 0 20 -4 20
-10 0 -5 9 -10 20 -10 13 0 20 -7 20 -20 0 -11 7 -20 15 -20 18 0 20 -40 3
-41 -7 0 -26 -2 -41 -3 -16 -1 -31 2 -33 6 -3 4 0 8 5 8 6 0 11 7 11 15 0 8
-4 15 -10 15 -5 0 -10 -7 -10 -16 0 -8 -5 -12 -10 -9 -6 4 -8 11 -5 16 4 5 -1
9 -9 9 -9 0 -16 -1 -16 -3 0 -1 30 -32 66 -67 36 -36 64 -58 62 -50 -2 8 -7
18 -13 22 -6 5 -5 8 3 8 7 0 15 -6 18 -14 3 -8 14 -16 25 -19 10 -3 19 -13 19
-23 0 -16 -2 -16 -22 2 l-23 19 19 -22 c10 -13 23 -20 28 -16 6 3 14 -1 19 -8
6 -11 11 -11 21 -1 15 15 28 16 28 2 0 -5 -7 -10 -15 -10 -18 0 -20 -19 -2
-21 6 -1 36 -1 64 1 58 2 83 -13 84 -52 l0 -23 12 25 c15 33 28 41 54 35 15
-3 30 2 43 15 11 11 20 17 20 14 0 -4 12 1 26 11 14 9 28 14 31 12 2 -3 -6
-11 -19 -18 -12 -7 -43 -27 -67 -45 -24 -19 -48 -31 -54 -27 -5 3 -7 2 -4 -4
4 -6 -29 -40 -73 -77 -44 -37 -102 -96 -130 -131 -33 -42 -56 -62 -65 -58 -21
7 -19 23 3 23 30 0 39 18 32 65 -6 41 -6 43 13 33 11 -6 17 -6 13 0 -3 5 3 17
14 27 10 9 16 23 13 31 -3 8 0 14 6 14 6 0 11 11 11 25 0 14 -4 25 -10 25 -5
0 -10 -9 -10 -21 0 -27 -53 -79 -80 -79 -12 0 -31 5 -43 11 -11 7 -47 11 -79
10 -53 -1 -58 0 -58 19 0 12 5 18 10 15 15 -10 12 3 -7 25 -23 26 -53 26 -53
0 0 -11 -7 -20 -15 -20 -8 0 -15 7 -15 15 0 20 -45 65 -65 65 -8 0 -15 5 -15
10 0 6 -9 10 -20 10 -11 0 -20 5 -20 10 0 6 -9 10 -20 10 -17 0 -20 7 -20 39
0 22 -5 41 -12 43 -16 6 -1 27 26 38 17 7 17 9 4 9 -19 1 -24 16 -9 25 10 7
53 -28 119 -98 26 -26 55 -55 65 -65 10 -9 38 -36 63 -60 24 -25 46 -43 49
-40 3 3 -72 81 -165 173 -162 159 -170 170 -170 206 0 21 5 42 10 45 6 3 10
14 10 23 0 13 -2 13 -15 -4 -13 -18 -14 -18 -8 4 3 13 12 22 22 21 9 -1 27 2
41 8 48 19 55 21 80 22 14 0 20 -3 14 -7z m1637 -298 c123 -23 233 -60 340
-115 127 -65 203 -120 298 -213 l79 -77 -29 -44 c-44 -65 -105 -200 -124 -275
-9 -36 -19 -67 -21 -69 -2 -2 -27 -6 -56 -8 -228 -18 -492 -200 -620 -428
-148 -264 -147 -612 3 -862 21 -35 41 -72 44 -84 7 -20 4 -21 -20 -15 -16 4
-24 3 -21 -3 4 -5 1 -13 -5 -17 -9 -5 -10 2 -6 27 5 22 4 29 -2 20 -8 -12 -13
-12 -24 -3 -12 10 -16 9 -21 -4 -4 -11 -2 -15 8 -11 8 3 17 0 19 -7 4 -10 -1
-12 -14 -9 -14 4 -19 0 -19 -13 0 -12 -3 -15 -8 -7 -9 14 -38 21 -37 8 0 -5 3
-9 7 -8 12 4 4 -36 -8 -41 -6 -2 -11 1 -10 7 0 7 -2 13 -6 15 -5 1 -8 -1 -7
-4 0 -4 -5 -11 -13 -15 -11 -8 -11 -11 1 -18 7 -5 10 -14 7 -20 -4 -6 -3 -11
2 -11 10 0 9 -30 -2 -48 -4 -7 -1 -12 8 -12 9 0 16 -4 16 -8 0 -4 9 -8 20 -8
11 0 20 4 20 8 0 4 -9 8 -20 8 -20 0 -20 1 -4 25 20 30 39 34 24 4 -10 -19
-10 -20 9 -10 25 14 34 14 26 1 -10 -17 7 -11 24 8 9 10 30 19 46 20 25 1 27
0 13 -9 -24 -13 -23 -24 2 -26 13 -1 18 2 14 9 -5 7 -2 8 6 3 10 -6 12 -3 8
12 -3 12 -2 27 3 34 6 10 9 4 9 -17 0 -17 7 -37 15 -44 13 -11 15 -8 15 16 0
22 -3 26 -10 14 -8 -13 -10 -12 -10 3 0 22 17 22 29 -1 6 -11 6 -24 0 -33 -5
-7 -9 -21 -9 -29 1 -11 3 -11 11 3 10 18 11 18 26 0 16 -20 15 -16 -11 45 -10
23 -24 42 -32 42 -8 0 -14 5 -14 10 0 6 2 10 5 10 10 0 155 -114 155 -122 0
-4 -34 -8 -75 -8 -55 0 -75 3 -75 13 0 14 -39 15 -80 2 -20 -6 -21 -5 -11 14
8 13 8 21 2 21 -6 0 -7 8 -4 17 6 15 5 16 -9 3 -10 -10 -13 -19 -7 -26 6 -8 4
-14 -5 -17 -9 -4 -13 -1 -10 6 2 7 -6 13 -21 13 -29 2 -30 0 -11 -18 11 -12 7
-14 -28 -14 -22 -1 -44 3 -47 9 -4 5 -15 5 -28 -2 -14 -8 -21 -8 -21 -1 0 5 5
10 12 10 6 0 9 2 6 5 -3 3 -18 0 -34 -6 -40 -17 -54 -19 -54 -8 0 5 -7 9 -15
9 -8 0 -15 -4 -15 -10 0 -5 -5 -10 -11 -10 -8 0 -8 5 1 15 17 20 1 19 -22 -2
-14 -12 -18 -13 -18 -3 0 11 -3 11 -12 2 -14 -14 -42 -16 -33 -2 9 14 -8 12
-24 -2 -10 -10 -15 -10 -18 -1 -2 6 -26 17 -54 24 -27 7 -49 17 -49 21 0 5 -4
7 -9 4 -5 -3 -11 1 -15 9 -3 8 -1 15 4 15 6 0 10 9 10 19 0 11 5 23 10 26 6 3
10 1 10 -5 0 -6 5 -8 11 -4 8 5 6 10 -5 16 -9 5 -21 6 -27 2 -8 -4 -9 1 -4 17
3 13 3 19 -2 14 -4 -6 -19 -16 -33 -23 l-25 -12 25 5 c24 6 24 5 6 -9 -11 -9
-15 -16 -10 -16 6 0 16 6 23 13 10 10 12 7 9 -13 -2 -15 -10 -25 -19 -25 -20
0 -52 -32 -40 -40 5 -3 12 4 16 15 8 26 29 26 22 1 -3 -15 -1 -18 11 -14 10 4
13 2 8 -5 -5 -8 -2 -10 8 -6 9 3 16 1 16 -5 0 -6 -8 -11 -17 -11 -9 0 -13 -3
-10 -7 4 -3 19 0 34 8 20 10 27 11 30 2 2 -7 11 -9 19 -6 8 3 14 1 14 -5 0
-16 -46 -20 -236 -22 l-182 -1 -73 59 c-233 186 -393 456 -445 753 -22 125
-22 363 0 488 50 279 177 520 389 734 182 185 448 326 697 372 105 19 319 19
421 -1z m3208 -69 c12 -17 22 -49 26 -90 8 -74 5 -71 113 -78 71 -4 86 -15 77
-62 -7 -41 -30 -55 -89 -55 -90 0 -94 -3 -101 -78 -10 -101 -26 -146 -53 -150
-32 -5 -51 14 -58 59 -5 26 -12 39 -23 40 -10 0 -11 2 -3 6 7 3 12 26 12 63
l0 58 -82 6 c-106 7 -107 7 -105 20 1 6 -3 10 -8 9 -14 -2 -6 65 9 74 6 4 47
12 91 18 l79 10 11 73 c6 39 8 72 3 72 -4 0 -8 5 -8 11 0 6 6 9 13 6 8 -3 20
-1 28 4 24 15 47 10 68 -16z m-1520 -50 c306 -64 545 -278 648 -580 13 -38 26
-93 30 -122 l6 -53 -39 -16 c-54 -22 -69 -35 -52 -45 10 -7 10 -9 -1 -9 -11 0
-9 -4 5 -15 16 -13 17 -16 4 -25 -8 -5 -22 -8 -30 -5 -9 3 -7 -1 5 -10 11 -9
26 -13 35 -9 55 23 130 36 232 41 107 5 124 4 202 -21 360 -112 561 -525 436
-898 -80 -239 -284 -426 -543 -498 -63 -18 -101 -20 -304 -20 -245 1 -258 4
-213 45 34 30 111 162 148 253 31 76 36 101 40 192 4 86 0 120 -18 190 -33
127 -88 234 -161 313 -112 123 -232 185 -411 213 -136 22 -209 10 -338 -53
-80 -40 -113 -64 -206 -153 -61 -58 -126 -114 -145 -125 -48 -29 -120 -129
-157 -217 -78 -188 -64 -407 37 -562 67 -103 76 -98 -176 -94 l-218 4 -92 35
c-124 48 -193 91 -278 174 -211 204 -283 494 -194 780 11 35 46 104 78 153
118 179 306 293 509 309 101 7 218 -15 323 -62 44 -20 86 -34 93 -32 20 8 25
51 10 86 -19 46 -100 92 -211 121 -50 13 -53 24 -27 111 34 112 118 252 213
353 107 112 296 216 456 251 82 18 219 18 304 0z m-3752 -232 c13 -12 35 -23
48 -23 13 0 32 -8 42 -19 10 -10 28 -22 41 -26 15 -4 21 -12 18 -21 -3 -9 -1
-12 4 -9 6 3 10 2 10 -2 0 -5 10 -10 22 -10 30 -3 69 -24 62 -34 -6 -11 31
-30 69 -35 33 -4 52 -17 52 -37 0 -7 9 -11 19 -9 11 2 15 -1 11 -7 -3 -6 -2
-11 2 -11 5 0 16 -13 26 -29 17 -30 22 -67 11 -96 -9 -23 -62 -48 -90 -41 -14
4 -24 2 -24 -4 0 -6 5 -8 10 -5 6 3 10 -3 10 -14 0 -19 -6 -21 -60 -21 -53 0
-60 2 -60 20 0 14 -7 20 -21 20 -14 0 -19 5 -16 13 4 10 -2 13 -19 9 -13 -2
-24 0 -24 5 0 4 -21 20 -47 33 -27 14 -50 26 -53 28 -2 2 1 7 9 11 13 9 -65
42 -104 44 -28 2 -45 21 -43 50 2 22 4 23 28 10 14 -7 30 -13 35 -13 6 1 -24
18 -65 39 -58 30 -77 35 -83 25 -4 -7 -14 -11 -23 -7 -13 5 -12 7 2 17 14 11
15 16 4 35 -6 13 -10 36 -8 52 3 15 1 26 -4 23 -11 -7 -10 8 2 26 6 9 10 10
10 3 0 -7 11 -1 25 13 22 21 33 24 87 23 50 -2 66 -7 85 -26z m5684 -298 c4
-16 10 -47 13 -67 7 -36 7 -37 64 -44 62 -7 72 -15 72 -56 0 -33 -19 -45 -88
-54 l-52 -7 0 -38 c0 -51 -14 -85 -41 -100 -20 -10 -26 -8 -46 15 -13 16 -25
46 -29 75 l-6 49 -56 6 c-65 8 -82 19 -82 55 0 43 14 54 73 59 l55 4 7 46 c13
84 20 94 67 90 37 -3 43 -6 49 -33z m-5756 -446 c-25 -7 -23 -7 10 -3 88 12
111 12 154 3 93 -21 101 -21 101 -10 0 6 16 -6 35 -28 22 -24 35 -49 35 -66 0
-26 -28 -85 -40 -85 -4 0 -4 -14 -2 -31 l5 -31 -117 3 c-73 3 -119 8 -124 16
-4 6 -39 15 -77 21 l-70 9 55 3 c30 1 59 2 63 1 5 -1 6 3 3 8 -4 5 -84 10
-182 11 -154 1 -181 3 -215 20 -65 34 -78 88 -31 132 15 14 33 27 40 29 7 2
97 5 200 5 115 1 176 -2 157 -7z m5895 -199 c15 -15 20 -33 20 -72 0 -29 4
-58 8 -64 4 -7 33 -15 65 -19 66 -8 93 -34 82 -78 -8 -29 -29 -37 -102 -37
l-53 0 0 -60 c0 -67 -21 -100 -64 -100 -35 0 -48 22 -54 95 l-5 65 -63 0 c-51
0 -68 4 -84 20 -11 11 -20 25 -20 30 0 22 50 60 78 60 16 0 44 3 61 6 29 6 31
9 32 53 2 78 11 104 39 112 38 11 39 10 60 -11z m-1953 -58 c118 -45 234 -152
286 -264 62 -132 73 -327 27 -451 -48 -129 -159 -254 -270 -306 l-55 -26 -292
1 -293 1 -38 27 c-55 38 -171 172 -196 226 -18 39 -21 64 -21 190 0 139 1 147
28 202 25 50 37 63 96 97 51 30 80 56 119 110 73 98 185 181 281 208 69 20
262 11 328 -15z m-4511 -156 c57 -57 44 -115 -34 -155 -32 -17 -74 -6 -104 27
-50 53 -44 106 14 142 49 30 84 26 124 -14z m912 -166 c17 -6 32 -16 32 -22 0
-5 -4 -7 -8 -4 -5 3 -9 -10 -10 -29 -2 -49 -17 -72 -60 -91 -20 -10 -47 -24
-60 -33 -13 -8 -69 -29 -125 -48 -56 -18 -111 -37 -122 -42 -40 -18 -251 -81
-270 -81 -36 0 -76 42 -86 90 -8 43 -7 46 23 72 30 26 185 95 201 90 5 -1 6 2
3 7 -8 12 33 41 57 41 10 0 31 9 45 21 21 16 39 20 82 18 52 -2 150 18 150 31
0 9 111 -6 148 -20z m6010 -125 c8 -7 16 -40 19 -74 7 -72 15 -78 98 -79 38
-1 54 -6 68 -23 22 -27 22 -41 -1 -69 -14 -18 -32 -23 -87 -27 -39 -3 -73 -11
-77 -17 -4 -6 -8 -33 -8 -61 0 -60 -18 -99 -47 -103 -31 -5 -61 34 -68 87 -12
93 -7 88 -87 96 -83 8 -98 16 -98 56 0 46 23 59 100 59 l69 0 6 48 c12 87 16
102 38 117 22 16 53 12 75 -10z m-6966 -105 c4 -14 10 -42 13 -62 6 -36 8 -38
45 -38 30 0 43 -6 59 -26 44 -56 18 -94 -65 -94 -30 0 -34 -3 -34 -25 0 -46
-27 -85 -59 -85 -37 0 -47 14 -56 73 l-7 47 -54 0 -54 0 0 44 c0 53 14 67 75
74 l45 5 0 46 c0 55 14 73 55 69 22 -2 32 -10 37 -28z m1094 -130 c0 0 9 -18
19 -40 17 -39 17 -41 -1 -61 -10 -11 -60 -47 -112 -79 -75 -47 -98 -57 -116
-50 -11 5 -33 11 -47 14 -48 10 -42 39 20 100 31 30 83 73 115 94 52 34 63 38
90 31 17 -5 31 -9 32 -9z m4949 -35 c33 -13 43 -14 225 -20 149 -4 179 -8 200
-24 27 -19 35 -48 26 -86 -10 -39 -34 -55 -84 -56 -43 0 -45 -1 -22 -11 21 -9
22 -12 8 -15 -21 -5 -22 -8 -7 -31 9 -14 6 -26 -11 -55 l-22 -37 -316 0 -317
0 82 80 c45 44 107 118 138 165 33 49 61 82 68 78 7 -4 8 0 4 11 -4 9 -3 15 1
13 4 -2 16 -8 27 -12z m-6013 -635 c86 -229 178 -495 179 -513 0 -21 1 -21 9
-2 4 11 41 115 81 230 40 116 85 245 101 288 l30 77 82 0 c80 0 83 -1 95 -26
29 -64 166 -436 187 -508 13 -44 25 -81 27 -83 3 -2 16 39 31 91 14 53 60 192
102 311 l77 215 125 0 c147 0 139 27 57 -205 -31 -88 -85 -245 -121 -350 -35
-104 -86 -248 -112 -320 l-48 -130 -112 -3 -111 -3 -6 28 c-11 53 -175 516
-187 528 -6 6 -11 -7 -128 -325 -45 -124 -84 -227 -86 -229 -4 -5 -197 -1
-202 4 -2 2 -59 167 -127 367 -67 200 -148 425 -178 501 l-56 138 132 -3 131
-3 28 -75z m2093 68 c2 -7 1 -58 -3 -113 l-7 -100 -240 -3 -240 -2 -2 -90 -2
-90 215 0 214 0 0 -105 0 -105 -157 -2 c-87 -2 -184 -3 -216 -3 l-57 0 0 -77
0 -78 246 0 246 0 -7 -112 c-4 -62 -11 -117 -15 -121 -4 -5 -166 -5 -360 -1
l-352 7 4 494 c3 425 5 495 18 503 24 16 710 13 715 -2z m785 -150 c125 -280
171 -380 215 -468 23 -47 64 -139 90 -205 26 -66 54 -129 61 -140 8 -11 14
-23 14 -28 0 -4 -61 -6 -136 -5 l-137 3 -28 73 c-15 41 -33 80 -39 87 -9 11
-57 15 -216 17 -174 3 -205 1 -210 -12 -3 -8 -17 -46 -31 -85 -14 -38 -29 -74
-33 -79 -7 -7 -240 -10 -247 -2 -6 6 131 340 148 362 5 6 44 89 87 185 44 96
107 236 142 311 l63 137 71 4 c39 1 80 4 92 5 18 2 31 -21 94 -160z m1138 155
c21 -5 22 -10 22 -98 0 -51 -3 -100 -6 -109 -5 -14 -28 -16 -152 -16 l-145 0
6 -390 c4 -267 3 -391 -4 -396 -6 -3 -63 -3 -126 1 l-116 7 6 389 6 388 -140
-6 c-115 -5 -143 -4 -150 8 -5 8 -9 63 -9 122 l0 109 393 -2 c215 -2 402 -5
415 -7z m402 -193 l0 -200 196 0 195 0 -2 198 -1 197 112 3 c63 1 117 -1 122
-6 5 -5 11 -235 13 -511 l5 -503 -123 7 c-67 4 -123 8 -124 9 -2 2 -3 56 -4
122 0 65 -3 152 -6 192 l-5 72 -184 0 -184 0 0 -195 0 -195 -119 0 -118 0 -6
83 c-9 109 -9 912 0 920 3 4 57 7 120 7 l113 0 0 -200z m1588 85 l-3 -110
-245 -3 -245 -2 0 -90 0 -90 213 0 212 0 0 -105 0 -105 -210 0 -210 0 0 -80 0
-80 244 0 245 0 6 -42 c3 -24 5 -74 3 -113 l-3 -70 -370 0 -370 0 2 494 c1
395 4 496 15 503 7 5 172 7 366 6 l353 -3 -3 -110z m568 106 c161 -7 175 -9
236 -38 80 -37 132 -89 167 -162 21 -47 26 -70 26 -146 0 -82 -3 -96 -33 -157
-29 -60 -82 -120 -127 -145 -16 -9 -15 -13 8 -59 14 -27 59 -101 101 -164 42
-63 76 -118 76 -122 0 -4 -63 -8 -140 -8 l-140 0 -21 43 c-12 23 -49 89 -82
145 l-62 104 -35 -6 c-19 -3 -54 -6 -77 -6 l-43 0 0 -140 0 -140 -120 0 -120
0 0 498 c0 274 3 502 7 505 8 9 161 8 379 -2z m-536 -1211 c81 0 89 -2 114
-26 46 -46 30 -106 -32 -124 -23 -6 -241 -10 -598 -10 -553 0 -562 0 -588 21
-21 17 -26 29 -26 67 0 26 4 53 8 59 6 10 103 14 403 16 216 2 448 2 513 0 66
-2 158 -3 206 -3z m-4313 -8 c34 -21 43 -110 14 -136 -18 -16 -53 -17 -445
-15 -234 1 -485 5 -558 9 -127 6 -132 8 -155 34 -27 32 -30 72 -6 98 15 17 46
18 577 18 309 0 566 -4 573 -8z m2719 -23 c112 -42 199 -124 252 -236 24 -52
27 -68 27 -168 -1 -138 -22 -197 -98 -279 -102 -110 -222 -155 -375 -142 -134
11 -248 83 -316 199 -145 247 7 589 286 647 58 12 162 2 224 -21z m-2296 -398
l0 -420 -97 -3 c-54 -2 -101 -2 -105 0 -10 4 -10 609 -1 745 l6 97 99 0 98 0
0 -419z m422 331 c71 -92 238 -319 274 -372 l22 -31 -2 243 -1 243 98 3 99 3
-4 -421 -3 -420 -81 0 -81 0 -29 44 c-16 24 -98 135 -181 245 -138 181 -153
198 -159 175 -4 -14 -4 -43 0 -65 3 -22 3 -121 0 -219 l-7 -180 -94 0 -93 0 0
420 0 420 88 -1 87 0 67 -87z m1235 80 c6 -4 15 -46 19 -94 l7 -88 -202 -2
-202 -3 -2 -83 -2 -82 163 0 163 0 -3 -87 -3 -88 -162 -3 -163 -2 0 -119 c0
-65 -3 -133 -6 -150 l-6 -31 -89 0 -89 0 0 374 c0 205 3 394 6 420 l7 46 276
0 c152 0 281 -4 288 -8z m-3807 -101 c17 -33 11 -67 -16 -95 -34 -33 -73 -34
-107 -1 -47 48 -39 96 22 127 30 15 37 15 62 2 16 -8 33 -23 39 -33z m6966 15
c42 -42 43 -69 5 -107 -39 -38 -72 -38 -105 2 -39 47 -31 109 17 129 37 15 48
11 83 -24z m-6599 -97 c7 -13 13 -38 13 -55 0 -29 3 -32 41 -38 69 -11 81 -21
77 -69 l-3 -42 -57 -3 -58 -3 0 -47 c0 -62 -21 -92 -64 -92 -44 0 -65 25 -69
86 l-3 49 -56 -3 c-68 -4 -80 9 -76 75 l3 48 66 3 66 3 9 52 c7 39 15 54 33
63 30 15 62 4 78 -27z m6163 26 c7 -9 15 -38 18 -65 l5 -50 43 0 c85 0 118
-32 95 -93 -10 -25 -14 -27 -75 -27 -63 0 -64 0 -70 -31 -3 -17 -6 -44 -6 -58
0 -37 -17 -51 -61 -51 -48 0 -62 19 -63 86 l-1 54 -46 0 c-26 0 -61 3 -78 6
-28 6 -31 10 -31 44 0 66 5 70 80 70 73 0 79 6 80 68 0 44 18 62 59 62 22 0
44 -6 51 -15z m-1243 -160 c62 -3 119 -8 127 -11 21 -8 38 -56 34 -95 -5 -51
-36 -58 -284 -58 l-211 -1 -24 26 c-34 36 -32 99 5 131 30 26 -2 25 353 8z
m-3543 -17 c23 -33 21 -101 -5 -124 -18 -16 -44 -19 -212 -25 -110 -4 -202 -3
-216 3 -56 21 -69 88 -25 129 24 22 36 24 157 30 282 11 284 11 301 -13z
m4075 -84 c22 -41 76 -130 120 -197 95 -147 219 -363 248 -432 31 -73 46 -170
39 -245 -14 -139 -116 -280 -251 -346 -88 -43 -150 -55 -231 -43 -135 19 -214
59 -299 151 -124 133 -152 294 -86 484 29 80 71 152 327 554 40 64 76 124 80
133 3 9 8 17 9 17 2 0 22 -34 44 -76z m-4790 -113 c281 -438 321 -518 329
-658 7 -145 -29 -252 -116 -346 -94 -100 -197 -147 -321 -147 -180 0 -325 96
-416 274 -37 74 -39 82 -40 174 0 145 25 198 314 667 128 207 135 216 146 199
6 -9 52 -83 104 -163z m4068 -119 c32 -26 63 -83 63 -118 0 -24 -9 -40 -35
-63 -43 -37 -70 -39 -134 -6 -38 19 -52 33 -65 65 -17 44 -20 78 -8 97 26 41
139 57 179 25z m-3372 -12 c53 -59 -5 -161 -99 -177 -51 -8 -86 24 -86 80 0
32 7 46 39 78 33 34 45 39 83 39 33 0 50 -6 63 -20z m4870 -156 c64 -30 81
-116 32 -162 -78 -73 -177 -25 -177 86 0 27 7 44 23 59 40 36 72 41 122 17z
m-6341 -25 c39 -46 36 -101 -8 -145 -46 -46 -77 -45 -128 6 -37 36 -40 43 -34
77 4 21 7 46 8 55 1 9 4 15 6 13 3 -2 14 2 26 10 11 8 39 15 62 15 35 0 47 -5
68 -31z m4530 -292 c19 -40 64 -118 99 -172 132 -206 190 -303 248 -420 77
-156 92 -239 64 -359 -42 -178 -188 -313 -374 -347 -138 -24 -298 29 -412 138
-118 112 -160 257 -126 425 22 103 30 121 132 283 48 77 126 203 173 280 110
180 152 245 157 245 3 0 20 -33 39 -73z m-2806 -12 c17 -35 56 -102 85 -147
287 -443 319 -507 325 -653 3 -88 1 -109 -21 -172 -45 -128 -127 -220 -245
-276 -121 -58 -294 -48 -419 24 -122 70 -205 193 -223 331 -20 157 17 263 181
521 149 233 226 359 245 400 10 20 23 37 29 37 6 0 25 -29 43 -65z m1386 -52
c37 -75 163 -302 236 -423 254 -422 298 -532 286 -705 -8 -126 -62 -258 -139
-343 -56 -60 -172 -135 -250 -161 -249 -82 -527 29 -645 257 -54 103 -72 176
-72 287 0 185 25 243 306 715 61 102 140 240 175 307 35 68 66 123 69 123 3 0
19 -26 34 -57z m-635 -42 c14 -10 43 -26 64 -34 29 -13 37 -21 37 -41 0 -28
-31 -66 -55 -66 -8 0 -30 -16 -49 -35 -47 -47 -95 -49 -128 -5 -12 17 -26 30
-32 30 -21 0 -56 44 -56 72 0 28 28 53 112 100 33 18 59 13 107 -21z m1327
-26 c12 -8 23 -12 26 -10 3 3 11 -7 18 -21 13 -22 11 -30 -11 -70 -24 -46 -61
-74 -98 -74 -11 0 -33 17 -50 39 -35 43 -52 101 -31 101 8 0 10 3 7 7 -13 12
47 43 83 43 20 0 45 -7 56 -15z m-2901 -689 c82 -34 71 -139 -17 -161 -22 -6
-33 -1 -58 23 -42 42 -42 90 1 126 36 31 31 30 74 12z m4489 -17 c32 -38 33
-80 4 -113 -37 -41 -72 -43 -108 -8 -39 40 -41 85 -3 124 36 38 74 37 107 -3z
m-1356 -632 c20 -21 27 -38 30 -85 4 -54 2 -62 -24 -91 -36 -40 -95 -51 -142
-27 -78 40 -90 173 -19 217 45 28 119 21 155 -14z m-1760 7 c69 -48 67 -147
-4 -203 -51 -40 -126 -15 -158 54 -25 51 -15 95 30 134 40 35 94 42 132 15z"/>
<path d="M4178 5953 c-10 -2 -18 -14 -18 -25 0 -11 -5 -18 -12 -15 -7 2 -19
-5 -26 -17 -10 -16 -12 -17 -8 -3 3 10 6 23 6 29 0 6 7 8 15 4 8 -3 15 -1 15
4 0 6 -11 10 -25 10 -18 0 -23 -4 -18 -16 5 -14 3 -15 -17 -4 -15 8 -20 8 -16
1 4 -6 2 -11 -3 -11 -6 0 -11 -5 -11 -11 0 -8 5 -7 15 1 9 7 19 10 22 6 4 -4
1 -11 -6 -16 -8 -4 -11 -15 -7 -25 4 -12 2 -16 -8 -12 -18 7 -36 -11 -29 -32
3 -12 1 -11 -11 3 -12 15 -13 23 -4 33 8 11 7 12 -6 7 -9 -3 -15 -14 -14 -23
4 -22 33 -42 52 -35 25 9 19 -2 -10 -21 -15 -9 -23 -12 -20 -6 4 6 0 14 -9 18
-10 3 -21 0 -25 -7 -5 -8 -10 -9 -14 -2 -3 6 -1 14 5 18 8 4 7 9 -2 15 -10 6
-11 9 -1 9 6 0 12 4 12 10 0 5 -8 7 -17 3 -14 -5 -15 -3 -6 7 6 7 9 19 6 28
-4 9 -2 13 4 9 6 -4 14 0 17 9 3 8 10 12 16 9 5 -3 10 -1 10 5 0 6 4 9 9 5 5
-3 12 -1 16 5 4 6 -4 9 -19 8 -15 -1 -26 -6 -26 -10 0 -3 -9 -10 -21 -13 -14
-5 -19 -13 -16 -26 3 -10 2 -19 -2 -19 -4 0 -16 -7 -27 -15 -18 -13 -18 -14 5
-8 15 4 22 2 18 -4 -9 -14 -56 -23 -63 -12 -9 15 -24 10 -24 -7 0 -8 4 -12 10
-9 5 3 20 -3 32 -15 13 -12 24 -16 28 -10 7 11 40 3 40 -9 0 -11 52 -12 66 0
7 6 22 8 32 5 23 -8 52 2 52 16 0 6 -6 5 -15 -2 -15 -12 -35 -6 -35 12 0 5 6
8 14 5 8 -3 16 -1 18 5 2 6 11 4 21 -7 17 -16 17 -18 1 -30 -32 -23 24 -26 67
-4 31 15 38 24 37 44 -1 14 -6 25 -11 25 -5 0 -6 11 -3 25 4 14 2 25 -3 25 -5
0 -13 9 -16 21 -5 14 -13 19 -26 16 -10 -3 -19 -1 -19 4 0 5 7 9 15 9 8 0 15
5 15 10 0 6 -1 9 -2 9 -2 -1 -11 -3 -20 -6z"/>
<path d="M5728 7722 c-111 -64 -261 -244 -289 -347 -10 -37 -9 -41 16 -62 14
-13 32 -23 40 -23 17 0 51 44 95 125 18 33 48 79 66 102 36 44 139 130 189
156 28 15 29 16 7 17 -13 0 -35 9 -49 20 -14 11 -20 20 -14 20 7 0 9 5 6 10
-9 14 -15 13 -67 -18z"/>
<path d="M4804 6912 c-51 -38 -105 -98 -140 -157 -26 -45 -74 -165 -74 -185 0
-5 14 -17 31 -25 41 -22 49 -13 103 99 33 68 59 106 104 150 33 33 71 65 84
72 12 7 17 13 10 14 -7 0 -17 11 -24 25 -6 13 -15 22 -19 19 -5 -3 -9 0 -9 5
0 19 -26 12 -66 -17z"/>
<path d="M7740 5863 c-36 -2 -69 -9 -75 -15 -7 -8 -6 -9 3 -4 7 4 12 1 12 -8
0 -9 3 -16 8 -17 4 0 16 -3 27 -5 86 -19 205 -10 205 16 0 6 7 10 15 10 8 0
15 4 15 9 0 4 37 9 82 10 45 1 84 4 87 7 5 4 -277 2 -379 -3z"/>
<path d="M4471 5088 c-24 -57 -52 -124 -62 -150 l-19 -48 115 0 c94 0 115 3
115 14 0 8 -22 70 -49 138 -27 68 -50 129 -52 136 -2 7 -24 -34 -48 -90z"/>
<path d="M8224 5254 c3 -9 6 -69 6 -135 l0 -119 108 0 c59 0 124 5 145 11 49
13 77 57 77 121 0 39 -6 54 -31 82 -39 45 -79 56 -208 56 -90 0 -102 -2 -97
-16z"/>
<path d="M6025 4068 c-92 -32 -149 -121 -150 -233 0 -59 4 -78 28 -117 75
-129 267 -143 372 -27 103 114 68 301 -68 365 -56 26 -129 31 -182 12z"/>
<path d="M7841 3203 c-18 -12 -21 -25 -21 -82 0 -104 -22 -165 -83 -226 -29
-28 -67 -58 -84 -66 -18 -7 -33 -19 -33 -25 0 -6 -10 -16 -22 -23 -14 -7 -16
-9 -5 -6 44 12 57 -54 17 -82 -24 -16 -24 -16 -10 2 17 21 17 24 -2 37 -10 7
-9 8 5 4 11 -3 17 0 17 9 0 11 -8 13 -32 8 -38 -7 -49 -13 -25 -13 10 0 17 -3
17 -7 -1 -16 -28 -43 -43 -43 -9 0 -18 -3 -20 -7 -3 -5 9 -8 26 -7 18 0 37 -4
43 -8 7 -5 18 -2 28 7 12 12 16 13 16 3 0 -8 4 -6 11 5 7 12 15 15 27 9 12 -6
23 -3 36 11 16 17 17 19 3 14 -19 -7 -22 -2 -7 16 6 7 17 21 25 32 12 16 14
16 9 3 -7 -22 11 -24 20 -3 3 8 11 15 18 15 9 0 9 -3 -2 -10 -20 -12 -9 -20
19 -13 16 4 19 8 10 14 -10 6 -10 11 -1 21 9 11 9 17 -1 27 -9 10 -8 11 6 5
11 -4 16 -13 12 -21 -3 -11 -1 -13 10 -9 8 3 15 0 15 -7 1 -18 39 31 67 87 19
37 21 47 9 43 -8 -3 -18 -1 -22 5 -4 6 -3 8 2 5 18 -10 33 8 43 51 8 37 7 43
-6 38 -11 -4 -13 -1 -8 14 4 11 2 20 -4 20 -6 0 -11 5 -11 12 0 6 9 3 20 -7
20 -18 20 -17 20 13 0 24 -4 32 -17 32 -15 0 -16 -2 -3 -10 18 -12 2 -12 -25
0 -11 5 -14 9 -7 9 30 2 55 52 33 65 -5 4 -7 -2 -4 -13 6 -24 -5 -30 -37 -20
l-25 7 25 2 c14 1 19 4 12 7 -10 4 -10 8 -1 19 8 9 8 14 1 14 -6 0 -14 -4 -17
-10 -3 -5 -14 -10 -23 -10 -13 0 -10 6 11 24 25 22 26 24 8 29 -11 2 -29 -2
-40 -10z"/>
<path d="M6806 2475 c-20 -15 -20 -15 0 -16 17 0 17 -1 2 -7 -12 -5 -14 -12
-9 -21 5 -7 7 -27 4 -42 -2 -17 0 -29 6 -29 6 0 11 -5 11 -11 0 -5 -4 -7 -10
-4 -5 3 -11 3 -11 -2 -1 -4 -3 -21 -5 -37 -8 -72 -64 -146 -158 -210 -13 -9
-16 -19 -12 -34 4 -12 11 -20 16 -17 5 3 12 1 15 -5 4 -6 -4 -10 -22 -8 -32 2
-53 -7 -53 -25 0 -8 3 -8 12 1 15 15 28 16 28 2 0 -5 -11 -12 -25 -16 -14 -3
-25 -10 -25 -16 0 -5 -5 -6 -11 -2 -8 4 -8 8 0 13 12 7 3 51 -10 51 -5 0 -6
-7 -3 -15 4 -10 1 -14 -7 -12 -8 2 -11 2 -6 0 4 -3 7 -9 7 -14 0 -6 -4 -8 -8
-5 -4 2 -14 0 -22 -5 -12 -8 -11 -9 5 -7 12 2 19 -2 17 -10 -1 -8 2 -11 7 -8
5 4 19 -6 30 -20 12 -15 21 -23 21 -18 0 5 16 9 35 8 19 -1 32 2 29 7 -3 5 1
12 10 15 8 3 12 12 9 20 -3 8 -2 14 1 14 4 0 11 -10 16 -22 l9 -23 0 23 c1 12
6 22 12 22 5 0 8 -4 4 -9 -3 -5 -1 -12 5 -16 5 -3 10 -3 11 2 0 4 2 16 4 26 2
10 -1 14 -7 11 -6 -4 -9 -1 -6 6 2 7 12 14 21 16 14 2 16 -2 11 -18 -5 -18 -4
-19 9 -7 8 8 13 17 11 20 -5 8 27 23 43 20 8 -1 10 4 7 13 -5 12 -11 13 -25 5
-11 -5 -19 -6 -19 -1 0 14 42 23 55 12 15 -12 37 32 29 55 -4 9 0 15 9 15 8 0
17 9 20 21 4 15 2 19 -8 15 -10 -3 -12 0 -8 11 5 12 1 14 -18 9 -20 -6 -21 -5
-6 4 9 6 17 15 17 20 0 6 -8 10 -17 10 -12 1 -9 6 12 17 20 11 30 12 33 4 16
-48 29 65 16 136 -5 28 -10 34 -25 30 -11 -3 -19 -1 -19 4 0 5 7 9 15 9 8 0
15 7 15 15 0 8 -5 15 -11 15 -5 0 -7 -4 -4 -10 3 -6 -1 -7 -9 -4 -8 3 -18 14
-21 25 -7 23 -23 24 -49 4z"/>
<path d="M4100 2320 c-13 -9 -13 -12 2 -24 16 -12 16 -14 -7 -24 -20 -9 -24
-17 -19 -36 7 -30 -12 -43 -25 -17 -8 14 -8 20 1 23 9 3 9 6 0 12 -7 4 -12 2
-12 -3 0 -6 -7 -11 -15 -11 -16 0 -19 9 -9 34 3 9 11 13 17 9 6 -4 7 -1 2 7
-6 10 -11 10 -20 -3 -7 -10 -17 -17 -24 -17 -16 0 -14 -17 4 -24 8 -3 15 -13
15 -23 -1 -17 -1 -17 -11 0 -15 25 -26 21 -44 -18 -9 -19 -23 -39 -31 -46 -20
-17 -17 -52 6 -67 12 -7 20 -8 20 -2 0 5 -4 10 -10 10 -5 0 -9 12 -9 28 1 16
3 20 6 10 2 -10 9 -18 14 -18 6 0 7 9 4 20 -3 11 -2 20 4 20 5 0 13 -9 16 -20
3 -11 17 -23 31 -26 13 -3 24 -13 24 -21 0 -9 -6 -13 -15 -10 -8 4 -17 2 -20
-3 -3 -4 1 -11 7 -13 9 -4 8 -6 -3 -6 -8 -1 -21 5 -28 12 -10 10 -11 9 -6 -5
4 -10 12 -18 18 -18 6 0 7 -3 4 -7 -4 -3 -2 -12 3 -18 8 -9 4 -12 -16 -12 -33
0 -46 -14 -33 -33 9 -13 10 -12 5 3 -3 9 -1 17 4 17 6 0 10 -6 11 -12 0 -7 4
-4 9 7 5 12 9 14 9 6 1 -17 71 46 71 63 0 6 -4 4 -10 -4 -6 -10 -8 -3 -7 23 2
34 5 38 25 34 21 -4 21 -3 7 13 -18 20 -20 34 -2 27 19 -7 38 18 24 32 -9 9
-9 14 2 20 10 7 11 13 2 30 -8 14 -8 21 -1 21 5 0 10 -4 10 -10 0 -5 5 -10 11
-10 8 0 8 4 0 14 -9 10 -8 15 4 20 20 7 19 26 -1 26 -14 0 -14 3 -4 15 14 17
11 19 -10 5z"/>
<path d="M2415 10220 c-18 -7 -18 -8 7 -15 26 -7 196 -1 288 9 36 4 39 4 15
-3 -39 -11 -28 -13 73 -11 77 1 82 0 82 -19 0 -22 24 -29 36 -9 5 8 11 6 20
-6 7 -10 17 -15 23 -11 16 9 13 25 -4 25 -8 0 -15 4 -15 8 0 19 45 28 98 21
30 -4 60 -5 67 -3 7 3 15 -2 18 -10 4 -9 13 -16 22 -16 8 0 15 -4 15 -9 0 -12
49 -20 56 -10 3 5 -3 9 -13 10 -16 0 -16 1 2 9 26 11 44 12 26 1 -9 -6 -10
-11 -2 -15 6 -4 11 -16 11 -27 0 -11 7 -19 16 -19 9 0 23 -8 30 -17 13 -17 15
-17 28 0 7 9 21 17 30 17 9 0 16 8 16 20 0 13 7 20 20 20 13 0 20 -7 20 -20 0
-13 7 -20 20 -20 24 0 25 4 4 24 -8 9 -11 16 -5 16 5 0 17 -7 25 -16 15 -14
17 -14 32 0 8 9 22 16 30 16 8 0 13 4 10 9 -8 13 4 42 15 35 5 -3 7 -10 4 -15
-4 -5 -2 -17 4 -26 8 -14 9 -10 6 18 -4 33 -3 36 18 32 12 -2 33 0 47 6 17 7
-83 10 -333 10 -306 1 -358 -1 -363 -14 -5 -13 -8 -13 -21 0 -12 12 -54 15
-236 14 -122 -1 -231 -5 -242 -9z"/>
<path d="M2040 9263 c0 -11 -16 -25 -43 -37 -27 -11 -37 -20 -27 -24 26 -10
52 -39 41 -47 -17 -10 -13 -35 5 -35 9 0 18 -9 21 -20 8 -29 43 -26 43 3 0 20
4 22 41 19 39 -4 40 -4 37 24 -2 24 -7 29 -28 27 -14 -1 -19 1 -12 3 6 3 10 9
7 14 -3 4 3 7 13 6 13 -1 18 8 20 42 l3 42 -60 0 c-51 0 -61 -3 -61 -17z"/>
</g>
</svg>
